<svg xmlns="http://www.w3.org/2000/svg" xmlns:xlink="http://www.w3.org/1999/xlink" width="286.12" height="60.566" viewBox="0 0 286.12 60.566">
  <defs>
    <linearGradient id="linear-gradient" x1="0.737" y1="0.059" x2="0.276" y2="0.958" gradientUnits="objectBoundingBox">
      <stop offset="0" stop-color="#ff9d00"/>
      <stop offset="1" stop-color="#f44646"/>
    </linearGradient>
    <linearGradient id="linear-gradient-2" x1="0.791" y1="0" x2="0.199" y2="0.98" xlink:href="#linear-gradient"/>
  </defs>
  <g id="Group_8" data-name="Group 8" transform="translate(-546.32 -246.118)">
    <g id="Group_7" data-name="Group 7" transform="translate(607.707 247.44)">
      <g id="Group_2" data-name="Group 2">
        <g id="Group_1" data-name="Group 1">
          <path id="Path_7" data-name="Path 7" d="M89.214,8.457V-8.507H82.488v-6h21.2v6H96.958V8.457Zm25.2-14.437H124.65V-.4H114.413Zm.525,8.6h11.484v5.84h-19.1V-14.511H126v5.84H114.938Zm27.988,6.365a14.57,14.57,0,0,1-5.1-.869,12,12,0,0,1-4.069-2.477,11.269,11.269,0,0,1-2.674-3.806,12.1,12.1,0,0,1-.952-4.856,12.1,12.1,0,0,1,.952-4.856,11.269,11.269,0,0,1,2.674-3.806,12,12,0,0,1,4.069-2.477,14.57,14.57,0,0,1,5.1-.869,14.377,14.377,0,0,1,5.988,1.181,11.111,11.111,0,0,1,4.315,3.412L148.34-6.079a7.927,7.927,0,0,0-2.248-1.985,5.473,5.473,0,0,0-2.773-.705,5.873,5.873,0,0,0-2.2.394,4.641,4.641,0,0,0-1.69,1.148,5.336,5.336,0,0,0-1.1,1.821,6.826,6.826,0,0,0-.394,2.379,6.826,6.826,0,0,0,.394,2.379,5.336,5.336,0,0,0,1.1,1.821,4.641,4.641,0,0,0,1.69,1.148,5.873,5.873,0,0,0,2.2.394,5.473,5.473,0,0,0,2.773-.705A7.927,7.927,0,0,0,148.34.024l4.889,4.364a11.38,11.38,0,0,1-4.315,3.4A14.207,14.207,0,0,1,142.926,8.982ZM172-14.511h7.743V8.457H172ZM164.844,8.457H157.1V-14.511h7.743Zm7.678-8.465h-8.2V-6.374h8.2Z" transform="translate(44.992 15.092)"/>
          <path id="Union_6" data-name="Union 6" d="M7.695,23.147a12,12,0,0,1-4.07-2.476A11.293,11.293,0,0,1,.952,16.865,12.1,12.1,0,0,1,0,12.009,12.109,12.109,0,0,1,.952,7.152,11.274,11.274,0,0,1,3.625,3.347,11.976,11.976,0,0,1,7.695.869,14.572,14.572,0,0,1,12.8,0a14.372,14.372,0,0,1,5.988,1.181A11.119,11.119,0,0,1,23.1,4.593L18.21,8.957a7.913,7.913,0,0,0-2.247-1.986,5.485,5.485,0,0,0-2.773-.706,5.883,5.883,0,0,0-2.2.394A4.637,4.637,0,0,0,9.3,7.809,5.352,5.352,0,0,0,8.2,9.63a6.849,6.849,0,0,0-.394,2.379A6.841,6.841,0,0,0,8.2,14.387a5.338,5.338,0,0,0,1.1,1.821,4.637,4.637,0,0,0,1.69,1.149,5.855,5.855,0,0,0,2.2.394,5.471,5.471,0,0,0,2.773-.706A7.929,7.929,0,0,0,18.21,15.06L23.1,19.424a11.386,11.386,0,0,1-4.316,3.4,14.2,14.2,0,0,1-5.988,1.2A14.54,14.54,0,0,1,7.695,23.147Zm75.009.4L72.993.581h8.333l5.466,13.4L92.417.581h7.612L90.317,23.548Zm-19.555,0-3.9-5.774H57.145v5.774H49.4V.581H60.458a13.521,13.521,0,0,1,5.562,1.05,8.212,8.212,0,0,1,3.627,3,8.222,8.222,0,0,1,1.28,4.61,8.067,8.067,0,0,1-1.28,4.577A7.906,7.906,0,0,1,66.6,16.484l4.82,7.064ZM59.966,11.933a3.382,3.382,0,0,0,2.379-.721,2.563,2.563,0,0,0,.771-1.969,2.563,2.563,0,0,0-.771-1.969,3.382,3.382,0,0,0-2.379-.721H57.145v5.38ZM25.679,23.548V.581h18.67v5.84H33.29V9.112H43v5.577H33.29v3.019H44.775v5.84Z" transform="translate(0 0)" stroke="rgba(0,0,0,0)" stroke-miterlimit="10" stroke-width="1"/>
          <path id="Path_3" data-name="Path 3" d="M13.788,9.357a14.972,14.972,0,0,1-5.265-.9A12.378,12.378,0,0,1,4.341,5.908,11.716,11.716,0,0,1,1.592,2.027,11.976,11.976,0,0,1,.609-2.855a11.817,11.817,0,0,1,.983-4.859A11.859,11.859,0,0,1,4.341-11.58a12.324,12.324,0,0,1,4.18-2.556,14.918,14.918,0,0,1,5.251-.9,14.884,14.884,0,0,1,5.265.9A12.353,12.353,0,0,1,23.2-11.58a11.859,11.859,0,0,1,2.749,3.866,11.817,11.817,0,0,1,.983,4.859,11.976,11.976,0,0,1-.983,4.882A11.717,11.717,0,0,1,23.2,5.908a12.412,12.412,0,0,1-4.165,2.549A14.835,14.835,0,0,1,13.788,9.357ZM13.77,2.992a5.231,5.231,0,0,0,2.051-.4,4.925,4.925,0,0,0,1.666-1.15A5.241,5.241,0,0,0,18.6-.39,7.036,7.036,0,0,0,19-2.84a7.036,7.036,0,0,0-.4-2.449,5.241,5.241,0,0,0-1.116-1.833,4.93,4.93,0,0,0-1.665-1.15,5.219,5.219,0,0,0-2.049-.4,5.231,5.231,0,0,0-2.051.4,4.926,4.926,0,0,0-1.666,1.15A5.241,5.241,0,0,0,8.94-5.289a7.036,7.036,0,0,0-.4,2.449A7.036,7.036,0,0,0,8.94-.39a5.241,5.241,0,0,0,1.116,1.833,4.93,4.93,0,0,0,1.665,1.15A5.219,5.219,0,0,0,13.77,2.992Z" transform="translate(98.983 15.092)" fill="url(#linear-gradient)"/>
        </g>
        <path id="Path_4" data-name="Path 4" d="M10.28,8.982A23.457,23.457,0,0,1,4.7,8.326,15.872,15.872,0,0,1,.273,6.619L2.767.976A15.971,15.971,0,0,0,6.425,2.5a14.3,14.3,0,0,0,3.921.574A8.179,8.179,0,0,0,12.1,2.928a2.015,2.015,0,0,0,.935-.427.892.892,0,0,0,.3-.673,1.094,1.094,0,0,0-.689-.984A7.356,7.356,0,0,0,10.822.238Q9.69-.008,8.345-.287a23.2,23.2,0,0,1-2.707-.738A10.551,10.551,0,0,1,3.144-2.24,5.68,5.68,0,0,1,1.323-4.225,6.21,6.21,0,0,1,.634-7.293a6.748,6.748,0,0,1,1.2-3.888,8.183,8.183,0,0,1,3.576-2.805,14.684,14.684,0,0,1,5.922-1.05,21.562,21.562,0,0,1,4.594.492,14.512,14.512,0,0,1,4.069,1.509l-2.33,5.611a17.587,17.587,0,0,0-3.3-1.28,11.952,11.952,0,0,0-3.1-.427,6.385,6.385,0,0,0-1.772.2,1.931,1.931,0,0,0-.935.525,1.09,1.09,0,0,0-.279.722,1.044,1.044,0,0,0,.689.935,7.464,7.464,0,0,0,1.821.574q1.132.23,2.494.492a20.2,20.2,0,0,1,2.707.722,10.643,10.643,0,0,1,2.477,1.214A5.724,5.724,0,0,1,20.288-1.78a6.042,6.042,0,0,1,.689,3.019,6.7,6.7,0,0,1-1.2,3.855,8.3,8.3,0,0,1-3.56,2.822A14.46,14.46,0,0,1,10.28,8.982Zm26.692,0A14.742,14.742,0,0,1,31.788,8.1a12.187,12.187,0,0,1-4.118-2.51,11.536,11.536,0,0,1-2.707-3.821A11.792,11.792,0,0,1,24-3.042a11.636,11.636,0,0,1,.968-4.785,11.677,11.677,0,0,1,2.707-3.806,12.135,12.135,0,0,1,4.116-2.517,14.688,14.688,0,0,1,5.17-.886,14.656,14.656,0,0,1,5.184.886,12.163,12.163,0,0,1,4.1,2.517,11.677,11.677,0,0,1,2.707,3.806,11.636,11.636,0,0,1,.968,4.785,11.792,11.792,0,0,1-.968,4.807,11.536,11.536,0,0,1-2.707,3.821,12.221,12.221,0,0,1-4.1,2.51A14.607,14.607,0,0,1,36.972,8.982Zm-.018-6.267a5.15,5.15,0,0,0,2.019-.394,4.85,4.85,0,0,0,1.641-1.132,5.16,5.16,0,0,0,1.1-1.8,6.928,6.928,0,0,0,.394-2.412,6.928,6.928,0,0,0-.394-2.412,5.16,5.16,0,0,0-1.1-1.8,4.854,4.854,0,0,0-1.639-1.132,5.139,5.139,0,0,0-2.018-.394,5.15,5.15,0,0,0-2.019.394A4.85,4.85,0,0,0,33.3-7.243a5.16,5.16,0,0,0-1.1,1.8A6.928,6.928,0,0,0,31.8-3.027,6.928,6.928,0,0,0,32.2-.615a5.16,5.16,0,0,0,1.1,1.8,4.854,4.854,0,0,0,1.639,1.132A5.139,5.139,0,0,0,36.954,2.715ZM54.379,8.457V-14.511h7.743V2.452H72.491v6Zm32.713.525q-5.283,0-8.236-2.855T75.9-1.879V-14.511h7.743v12.4A5.706,5.706,0,0,0,84.6,1.616a3.213,3.213,0,0,0,2.559,1.1,3.2,3.2,0,0,0,2.576-1.1,5.781,5.781,0,0,0,.935-3.724v-12.4H98.28V-1.879q0,5.151-2.953,8.006T87.092,8.982Zm21.032-.525V-8.507H101.4v-6h21.2v6h-6.726V8.457Zm18.112,0V-14.511h7.743V8.457Zm25.183.525a14.742,14.742,0,0,1-5.184-.886,12.187,12.187,0,0,1-4.118-2.51,11.536,11.536,0,0,1-2.707-3.821,11.792,11.792,0,0,1-.968-4.807,11.636,11.636,0,0,1,.968-4.785,11.676,11.676,0,0,1,2.707-3.806,12.135,12.135,0,0,1,4.116-2.517,14.688,14.688,0,0,1,5.17-.886,14.656,14.656,0,0,1,5.184.886,12.163,12.163,0,0,1,4.1,2.517,11.677,11.677,0,0,1,2.707,3.806,11.636,11.636,0,0,1,.968,4.785,11.792,11.792,0,0,1-.968,4.807,11.537,11.537,0,0,1-2.707,3.821,12.221,12.221,0,0,1-4.1,2.51A14.607,14.607,0,0,1,151.418,8.982ZM151.4,2.715a5.15,5.15,0,0,0,2.019-.394,4.85,4.85,0,0,0,1.641-1.132,5.16,5.16,0,0,0,1.1-1.8,6.928,6.928,0,0,0,.394-2.412,6.928,6.928,0,0,0-.394-2.412,5.16,5.16,0,0,0-1.1-1.8,4.854,4.854,0,0,0-1.639-1.132,5.139,5.139,0,0,0-2.018-.394,5.15,5.15,0,0,0-2.019.394,4.85,4.85,0,0,0-1.641,1.132,5.16,5.16,0,0,0-1.1,1.8,6.928,6.928,0,0,0-.394,2.412,6.928,6.928,0,0,0,.394,2.412,5.16,5.16,0,0,0,1.1,1.8,4.854,4.854,0,0,0,1.639,1.132A5.139,5.139,0,0,0,151.4,2.715Zm17.424,5.742V-14.511h6.365L186.871-.533h-2.953V-14.511h7.547V8.457H185.1L173.418-5.521h2.953V8.457Z" transform="translate(0.764 43.216)"/>
      </g>
    </g>
    <path id="Union_9" data-name="Union 9" d="M17.722,48.636l30.144-11.47V29.855l-20.474-7.6v6.982L39.7,33.56l-21.98,8.094v6.982m9.685-12.2V29.451L15.1,25.131l21.977-8.094V10.053L6.931,21.523v7.311l20.476,7.6M10.791,58.689V37.66L0,33.655V16.744L44.006,0V21.03l10.791,4V41.945Z" transform="matrix(0.999, 0.035, -0.035, 0.999, 548.368, 246.118)" fill="url(#linear-gradient-2)"/>
  </g>
</svg>
