<svg xmlns="http://www.w3.org/2000/svg" xmlns:xlink="http://www.w3.org/1999/xlink" width="199.443" height="34" viewBox="0 0 199.443 34">
  <defs>
    <linearGradient id="linear-gradient" x1="0.737" y1="0.059" x2="0.276" y2="0.958" gradientUnits="objectBoundingBox">
      <stop offset="0" stop-color="#ff9d00"/>
      <stop offset="1" stop-color="#f44646"/>
    </linearGradient>
    <linearGradient id="linear-gradient-2" x1="0.708" y1="0" x2="0.293" y2="0.973" xlink:href="#linear-gradient"/>
  </defs>
  <g id="Group_5" data-name="Group 5" transform="translate(-530 -343)">
    <g id="Group_2" data-name="Group 2">
      <g id="Group_1" data-name="Group 1">
        <path id="Path_7" data-name="Path 7" d="M86.793,0V-10.857H82.488V-14.7H96.054v3.843H91.749V0Zm16.128-9.24h6.552v3.57h-6.552Zm.336,5.5h7.35V0H98.385V-14.7h11.949v3.738h-7.077ZM121.17.336A9.326,9.326,0,0,1,117.9-.22a7.68,7.68,0,0,1-2.6-1.586,7.213,7.213,0,0,1-1.711-2.436,7.743,7.743,0,0,1-.609-3.108,7.743,7.743,0,0,1,.609-3.108,7.213,7.213,0,0,1,1.711-2.436,7.68,7.68,0,0,1,2.6-1.585,9.326,9.326,0,0,1,3.265-.557A9.2,9.2,0,0,1,125-14.28a7.111,7.111,0,0,1,2.761,2.184L124.635-9.3a5.074,5.074,0,0,0-1.438-1.271,3.5,3.5,0,0,0-1.774-.451,3.759,3.759,0,0,0-1.407.252,2.97,2.97,0,0,0-1.081.735,3.415,3.415,0,0,0-.7,1.165,4.369,4.369,0,0,0-.252,1.523,4.369,4.369,0,0,0,.252,1.523,3.415,3.415,0,0,0,.7,1.165,2.97,2.97,0,0,0,1.081.735,3.759,3.759,0,0,0,1.407.252,3.5,3.5,0,0,0,1.774-.452,5.074,5.074,0,0,0,1.438-1.27L127.764-2.6A7.283,7.283,0,0,1,125-.431,9.093,9.093,0,0,1,121.17.336ZM139.776-14.7h4.956V0h-4.956ZM135.2,0h-4.956V-14.7H135.2Zm4.914-5.418h-5.25V-9.492h5.25Z" transform="translate(584.711 358.036)"/>
        <path id="Path_6" data-name="Path 6" d="M6.678.336a15.013,15.013,0,0,1-3.57-.42A10.158,10.158,0,0,1,.273-1.176l1.6-3.612a10.222,10.222,0,0,0,2.341.977,9.151,9.151,0,0,0,2.51.368,5.235,5.235,0,0,0,1.123-.095,1.29,1.29,0,0,0,.6-.273.571.571,0,0,0,.189-.431.7.7,0,0,0-.441-.63A4.708,4.708,0,0,0,7.025-5.26Q6.3-5.418,5.439-5.6a14.85,14.85,0,0,1-1.733-.473,6.753,6.753,0,0,1-1.6-.777A3.635,3.635,0,0,1,.945-8.116,3.974,3.974,0,0,1,.5-10.08a4.319,4.319,0,0,1,.766-2.489,5.237,5.237,0,0,1,2.289-1.8,9.4,9.4,0,0,1,3.791-.672,13.8,13.8,0,0,1,2.94.315,9.288,9.288,0,0,1,2.6.966L11.4-10.164a11.256,11.256,0,0,0-2.111-.819,7.649,7.649,0,0,0-1.984-.273,4.087,4.087,0,0,0-1.134.126,1.236,1.236,0,0,0-.6.336.7.7,0,0,0-.179.462.668.668,0,0,0,.441.6A4.777,4.777,0,0,0,7-9.366q.725.147,1.6.315a12.932,12.932,0,0,1,1.733.462,6.812,6.812,0,0,1,1.585.777,3.663,3.663,0,0,1,1.166,1.26,3.867,3.867,0,0,1,.441,1.932,4.286,4.286,0,0,1-.766,2.467A5.313,5.313,0,0,1,10.479-.347,9.255,9.255,0,0,1,6.678.336ZM20.58-9.24h6.552v3.57H20.58Zm.336,5.5h7.35V0H16.044V-14.7H27.993v3.738H20.916ZM31.227,0V-14.7H38.3a8.659,8.659,0,0,1,3.56.672,5.263,5.263,0,0,1,2.32,1.922A5.26,5.26,0,0,1,45-9.156a5.158,5.158,0,0,1-.819,2.93,5.182,5.182,0,0,1-2.32,1.879A8.9,8.9,0,0,1,38.3-3.7H33.978l2.205-2.037V0Zm8.8,0L36.414-5.355h5.25L45.318,0ZM36.183-5.187,33.978-7.434h4.011A2.165,2.165,0,0,0,39.512-7.9a1.642,1.642,0,0,0,.493-1.26,1.642,1.642,0,0,0-.493-1.26,2.165,2.165,0,0,0-1.522-.462H33.978l2.205-2.247ZM52.542,0,46.326-14.7H51.66L56.721-2.289H53.55L58.758-14.7H63.63L57.414,0Z" transform="translate(586 358.036)"/>
        <path id="Path_3" data-name="Path 3" d="M9.044.576A9.583,9.583,0,0,1,5.674,0,7.922,7.922,0,0,1,3-1.631a7.5,7.5,0,0,1-1.76-2.484A7.665,7.665,0,0,1,.609-7.24a7.563,7.563,0,0,1,.629-3.11A7.59,7.59,0,0,1,3-12.824,7.888,7.888,0,0,1,5.673-14.46a9.548,9.548,0,0,1,3.361-.576,9.526,9.526,0,0,1,3.37.576,7.906,7.906,0,0,1,2.666,1.636,7.59,7.59,0,0,1,1.76,2.474,7.563,7.563,0,0,1,.629,3.11,7.665,7.665,0,0,1-.629,3.125,7.5,7.5,0,0,1-1.76,2.484A7.944,7.944,0,0,1,12.4,0,9.495,9.495,0,0,1,9.044.576ZM9.032-3.5a3.348,3.348,0,0,0,1.313-.256,3.152,3.152,0,0,0,1.066-.736,3.354,3.354,0,0,0,.714-1.173,4.5,4.5,0,0,0,.256-1.568A4.5,4.5,0,0,0,12.126-8.8a3.354,3.354,0,0,0-.714-1.173,3.155,3.155,0,0,0-1.065-.736,3.341,3.341,0,0,0-1.312-.256,3.348,3.348,0,0,0-1.313.256,3.152,3.152,0,0,0-1.066.736A3.354,3.354,0,0,0,5.941-8.8,4.5,4.5,0,0,0,5.685-7.23a4.5,4.5,0,0,0,.256,1.568,3.354,3.354,0,0,0,.714,1.173,3.155,3.155,0,0,0,1.065.736A3.341,3.341,0,0,0,9.032-3.5Z" transform="translate(648.741 358.036)" fill="url(#linear-gradient)"/>
      </g>
      <path id="Path_4" data-name="Path 4" d="M6.678.336a15.013,15.013,0,0,1-3.57-.42A10.158,10.158,0,0,1,.273-1.176l1.6-3.612a10.222,10.222,0,0,0,2.341.977,9.151,9.151,0,0,0,2.51.368,5.235,5.235,0,0,0,1.123-.095,1.29,1.29,0,0,0,.6-.273.571.571,0,0,0,.189-.431.7.7,0,0,0-.441-.63A4.708,4.708,0,0,0,7.025-5.26Q6.3-5.418,5.439-5.6a14.85,14.85,0,0,1-1.733-.473,6.753,6.753,0,0,1-1.6-.777A3.635,3.635,0,0,1,.945-8.116,3.974,3.974,0,0,1,.5-10.08a4.319,4.319,0,0,1,.766-2.489,5.237,5.237,0,0,1,2.289-1.8,9.4,9.4,0,0,1,3.791-.672,13.8,13.8,0,0,1,2.94.315,9.288,9.288,0,0,1,2.6.966L11.4-10.164a11.256,11.256,0,0,0-2.111-.819,7.649,7.649,0,0,0-1.984-.273,4.087,4.087,0,0,0-1.134.126,1.236,1.236,0,0,0-.6.336.7.7,0,0,0-.179.462.668.668,0,0,0,.441.6A4.777,4.777,0,0,0,7-9.366q.725.147,1.6.315a12.932,12.932,0,0,1,1.733.462,6.812,6.812,0,0,1,1.585.777,3.663,3.663,0,0,1,1.166,1.26,3.867,3.867,0,0,1,.441,1.932,4.286,4.286,0,0,1-.766,2.467A5.313,5.313,0,0,1,10.479-.347,9.255,9.255,0,0,1,6.678.336Zm17.083,0a9.435,9.435,0,0,1-3.318-.567,7.8,7.8,0,0,1-2.635-1.606,7.384,7.384,0,0,1-1.733-2.446,7.547,7.547,0,0,1-.62-3.076,7.447,7.447,0,0,1,.62-3.062,7.473,7.473,0,0,1,1.733-2.436,7.767,7.767,0,0,1,2.634-1.611,9.4,9.4,0,0,1,3.309-.567,9.38,9.38,0,0,1,3.318.567,7.785,7.785,0,0,1,2.625,1.611,7.473,7.473,0,0,1,1.733,2.436,7.447,7.447,0,0,1,.619,3.062,7.547,7.547,0,0,1-.619,3.076,7.384,7.384,0,0,1-1.733,2.446A7.822,7.822,0,0,1,27.069-.231,9.349,9.349,0,0,1,23.761.336ZM23.75-3.675a3.3,3.3,0,0,0,1.292-.252,3.1,3.1,0,0,0,1.05-.724,3.3,3.3,0,0,0,.7-1.155,4.434,4.434,0,0,0,.252-1.544A4.434,4.434,0,0,0,26.8-8.894a3.3,3.3,0,0,0-.7-1.155,3.107,3.107,0,0,0-1.049-.725,3.289,3.289,0,0,0-1.292-.252,3.3,3.3,0,0,0-1.292.252,3.1,3.1,0,0,0-1.05.725,3.3,3.3,0,0,0-.7,1.155,4.434,4.434,0,0,0-.252,1.544,4.434,4.434,0,0,0,.252,1.544,3.3,3.3,0,0,0,.7,1.155,3.107,3.107,0,0,0,1.049.724A3.289,3.289,0,0,0,23.75-3.675ZM34.9,0V-14.7h4.956V-3.843h6.636V0ZM55.839.336a7.269,7.269,0,0,1-5.271-1.827,6.794,6.794,0,0,1-1.89-5.124V-14.7h4.956v7.938a3.652,3.652,0,0,0,.609,2.384,2.056,2.056,0,0,0,1.638.7,2.049,2.049,0,0,0,1.649-.7,3.7,3.7,0,0,0,.6-2.384V-14.7H63v8.085a6.794,6.794,0,0,1-1.89,5.124A7.269,7.269,0,0,1,55.839.336ZM69.3,0V-10.857H65V-14.7H78.561v3.843H74.256V0ZM80.892,0V-14.7h4.956V0ZM97.009.336a9.435,9.435,0,0,1-3.318-.567,7.8,7.8,0,0,1-2.635-1.606,7.384,7.384,0,0,1-1.732-2.446A7.547,7.547,0,0,1,88.7-7.36a7.447,7.447,0,0,1,.619-3.062,7.473,7.473,0,0,1,1.732-2.436,7.767,7.767,0,0,1,2.634-1.611A9.4,9.4,0,0,1,97-15.036a9.38,9.38,0,0,1,3.318.567,7.785,7.785,0,0,1,2.625,1.611,7.473,7.473,0,0,1,1.732,2.436,7.447,7.447,0,0,1,.619,3.062,7.547,7.547,0,0,1-.619,3.076,7.384,7.384,0,0,1-1.732,2.446,7.822,7.822,0,0,1-2.625,1.606A9.349,9.349,0,0,1,97.009.336ZM97-3.675a3.3,3.3,0,0,0,1.292-.252,3.1,3.1,0,0,0,1.05-.724,3.3,3.3,0,0,0,.7-1.155A4.434,4.434,0,0,0,100.3-7.35a4.434,4.434,0,0,0-.252-1.544,3.3,3.3,0,0,0-.7-1.155,3.107,3.107,0,0,0-1.049-.725A3.289,3.289,0,0,0,97-11.025a3.3,3.3,0,0,0-1.292.252,3.1,3.1,0,0,0-1.05.725,3.3,3.3,0,0,0-.7,1.155A4.434,4.434,0,0,0,93.7-7.35a4.434,4.434,0,0,0,.252,1.544,3.3,3.3,0,0,0,.7,1.155,3.107,3.107,0,0,0,1.049.724A3.289,3.289,0,0,0,97-3.675ZM108.15,0V-14.7h4.074L119.7-5.754h-1.89V-14.7h4.83V0h-4.074L111.09-8.946h1.89V0Z" transform="translate(586 376.036)"/>
      <path id="Union_1" data-name="Union 1" d="M0,34a9.444,9.444,0,0,1,9.445-9.445H51A9.445,9.445,0,0,1,41.556,34ZM23.827,21.722l6.259-9.445H41.378A9.535,9.535,0,0,1,51,21.722Zm-14.2,0A9.535,9.535,0,0,1,0,12.278H26.609L20.35,21.722ZM0,9.445A9.444,9.444,0,0,1,9.445,0H51a9.445,9.445,0,0,1-9.445,9.445Z" transform="translate(530 343)" fill="url(#linear-gradient-2)"/>
    </g>
  </g>
</svg>
