<svg xmlns="http://www.w3.org/2000/svg" xmlns:xlink="http://www.w3.org/1999/xlink" width="286.12" height="69.91" viewBox="0 0 286.12 69.91">
  <defs>
    <linearGradient id="linear-gradient" x1="0.78" y1="0.102" x2="0.186" y2="0.88" gradientUnits="objectBoundingBox">
      <stop offset="0" stop-color="#ff9d00"/>
      <stop offset="1" stop-color="#f44646"/>
    </linearGradient>
    <linearGradient id="linear-gradient-2" x1="0.791" y1="0" x2="0.199" y2="0.98" xlink:href="#linear-gradient"/>
  </defs>
  <g id="Group_19" data-name="Group 19" transform="translate(-474.036 -96.68)">
    <path id="Union_9" data-name="Union 9" d="M203.812,48.957a14.234,14.234,0,0,1-3.977-1.531l2.238-5.066a14.371,14.371,0,0,0,3.285,1.369,12.854,12.854,0,0,0,3.521.516,7.409,7.409,0,0,0,1.576-.133,1.808,1.808,0,0,0,.839-.383.8.8,0,0,0,.265-.6.983.983,0,0,0-.619-.883A6.592,6.592,0,0,0,209.3,41.7q-1.016-.223-2.224-.472a20.991,20.991,0,0,1-2.43-.663,9.431,9.431,0,0,1-2.239-1.09,5.1,5.1,0,0,1-1.634-1.783,5.573,5.573,0,0,1-.619-2.753,6.059,6.059,0,0,1,1.075-3.492,7.353,7.353,0,0,1,3.21-2.519,13.183,13.183,0,0,1,5.317-.942,19.393,19.393,0,0,1,4.125.441,13.032,13.032,0,0,1,3.652,1.356l-2.092,5.037a15.723,15.723,0,0,0-2.96-1.149,10.714,10.714,0,0,0-2.784-.383,5.776,5.776,0,0,0-1.591.176,1.738,1.738,0,0,0-.839.472.978.978,0,0,0-.251.648.935.935,0,0,0,.618.839,6.719,6.719,0,0,0,1.636.516q1.016.207,2.239.441a18.335,18.335,0,0,1,2.43.648,9.585,9.585,0,0,1,2.224,1.091,5.129,5.129,0,0,1,1.634,1.767,5.425,5.425,0,0,1,.619,2.709,6.017,6.017,0,0,1-1.075,3.461,7.463,7.463,0,0,1-3.2,2.534,13,13,0,0,1-5.333.957A21,21,0,0,1,203.812,48.957Zm-48.118-.205A10.935,10.935,0,0,1,152,46.5a10.353,10.353,0,0,1-2.431-3.431,10.594,10.594,0,0,1-.868-4.316,10.312,10.312,0,0,1,3.3-7.712,10.88,10.88,0,0,1,3.694-2.26,13.98,13.98,0,0,1,9.3,0,10.911,10.911,0,0,1,3.681,2.26,10.312,10.312,0,0,1,3.3,7.712,10.6,10.6,0,0,1-.868,4.316,10.353,10.353,0,0,1-2.431,3.431,10.98,10.98,0,0,1-3.681,2.253,13.972,13.972,0,0,1-9.293,0Zm2.827-14.788a4.361,4.361,0,0,0-1.473,1.017,4.63,4.63,0,0,0-.988,1.62,6.825,6.825,0,0,0,0,4.331,4.63,4.63,0,0,0,.988,1.62,4.356,4.356,0,0,0,1.471,1.017,4.832,4.832,0,0,0,3.624,0,4.361,4.361,0,0,0,1.473-1.017,4.63,4.63,0,0,0,.988-1.62,6.825,6.825,0,0,0,0-4.331,4.63,4.63,0,0,0-.988-1.62,4.356,4.356,0,0,0-1.471-1.017,4.832,4.832,0,0,0-3.624,0Zm-42.875,13.02A9.53,9.53,0,0,1,113,39.8V28.456h6.953V39.59a5.127,5.127,0,0,0,.854,3.343,3.187,3.187,0,0,0,4.61,0,5.19,5.19,0,0,0,.839-3.343V28.456h6.835V39.8a9.53,9.53,0,0,1-2.651,7.187,11.945,11.945,0,0,1-14.788,0Zm-44.715,0A9.53,9.53,0,0,1,68.281,39.8V28.456h6.953V39.59a5.119,5.119,0,0,0,.854,3.343,3.187,3.187,0,0,0,4.61,0,5.191,5.191,0,0,0,.839-3.343V28.456h6.835V39.8a9.53,9.53,0,0,1-2.651,7.187,10.2,10.2,0,0,1-7.394,2.564A10.2,10.2,0,0,1,70.932,46.983ZM28.676,48.751a10.961,10.961,0,0,1-3.7-2.253,10.368,10.368,0,0,1-2.43-3.431,10.594,10.594,0,0,1-.868-4.316,10.317,10.317,0,0,1,3.3-7.712,10.9,10.9,0,0,1,3.7-2.26,13.976,13.976,0,0,1,9.295,0,10.9,10.9,0,0,1,3.682,2.26,10.312,10.312,0,0,1,3.3,7.712,10.594,10.594,0,0,1-.868,4.316A10.372,10.372,0,0,1,41.652,46.5a10.973,10.973,0,0,1-3.682,2.253,13.972,13.972,0,0,1-9.293,0ZM31.5,33.963a4.348,4.348,0,0,0-1.473,1.017,4.63,4.63,0,0,0-.988,1.62,6.8,6.8,0,0,0,0,4.331,4.63,4.63,0,0,0,.988,1.62A4.356,4.356,0,0,0,31.5,43.567a4.832,4.832,0,0,0,3.624,0A4.361,4.361,0,0,0,36.6,42.55a4.63,4.63,0,0,0,.988-1.62,6.825,6.825,0,0,0,0-4.331,4.63,4.63,0,0,0-.988-1.62,4.356,4.356,0,0,0-1.471-1.017,4.832,4.832,0,0,0-3.624,0ZM4.36,48.957A14.234,14.234,0,0,1,.383,47.426l2.239-5.066a14.346,14.346,0,0,0,3.285,1.369,12.845,12.845,0,0,0,3.519.516A7.4,7.4,0,0,0,11,44.112a1.808,1.808,0,0,0,.839-.383.8.8,0,0,0,.265-.6.981.981,0,0,0-.618-.883A6.6,6.6,0,0,0,9.853,41.7q-1.016-.223-2.223-.472A20.94,20.94,0,0,1,5.2,40.562a9.431,9.431,0,0,1-2.239-1.09,5.1,5.1,0,0,1-1.634-1.783,5.573,5.573,0,0,1-.619-2.753,6.069,6.069,0,0,1,1.075-3.492,7.357,7.357,0,0,1,3.212-2.519,13.183,13.183,0,0,1,5.317-.942,19.371,19.371,0,0,1,4.124.441,13.017,13.017,0,0,1,3.652,1.356L16,34.818a15.767,15.767,0,0,0-2.961-1.149,10.7,10.7,0,0,0-2.784-.383,5.789,5.789,0,0,0-1.591.176,1.738,1.738,0,0,0-.839.472.978.978,0,0,0-.251.648.936.936,0,0,0,.619.839,6.687,6.687,0,0,0,1.634.516q1.016.207,2.239.441a18.28,18.28,0,0,1,2.43.648,9.559,9.559,0,0,1,2.224,1.091,5.129,5.129,0,0,1,1.634,1.767,5.411,5.411,0,0,1,.619,2.709,6.007,6.007,0,0,1-1.075,3.461,7.455,7.455,0,0,1-3.2,2.534,13,13,0,0,1-5.331.957A21.013,21.013,0,0,1,4.36,48.957Zm186.226.118L182.75,39.7v9.375h-6.775V28.456h5.714l7.835,9.375V28.456H196.3V49.075Zm-52.846,0V28.456h6.953V49.075Zm-40.533,0V33.845H91.169v-5.39H110.2v5.39h-6.038V49.075Zm-48.25,0V28.456h6.953V43.685h9.308v5.39Zm115.6-28.293a10.783,10.783,0,0,1-3.652-2.224,10.1,10.1,0,0,1-2.4-3.417,10.851,10.851,0,0,1-.855-4.36,10.855,10.855,0,0,1,.855-4.36,10.106,10.106,0,0,1,2.4-3.416A10.762,10.762,0,0,1,164.559.781,13.078,13.078,0,0,1,169.141,0a12.917,12.917,0,0,1,5.376,1.06,9.988,9.988,0,0,1,3.873,3.063L174,8.042a7.134,7.134,0,0,0-2.019-1.783,4.916,4.916,0,0,0-2.488-.634,5.266,5.266,0,0,0-1.974.354A4.168,4.168,0,0,0,166,7.011a4.813,4.813,0,0,0-.986,1.634,6.127,6.127,0,0,0-.354,2.135,6.116,6.116,0,0,0,.354,2.135A4.806,4.806,0,0,0,166,14.552a4.168,4.168,0,0,0,1.518,1.031,5.292,5.292,0,0,0,1.974.353,4.9,4.9,0,0,0,2.488-.634A7.108,7.108,0,0,0,174,13.521l4.389,3.918a10.241,10.241,0,0,1-3.873,3.049,12.773,12.773,0,0,1-5.376,1.075A13.109,13.109,0,0,1,164.559,20.782Zm-157.652,0a10.77,10.77,0,0,1-3.652-2.224,10.12,10.12,0,0,1-2.4-3.417A10.873,10.873,0,0,1,0,10.781a10.878,10.878,0,0,1,.854-4.36,10.128,10.128,0,0,1,2.4-3.416A10.749,10.749,0,0,1,6.907.781,13.068,13.068,0,0,1,11.489,0a12.911,12.911,0,0,1,5.375,1.06,9.969,9.969,0,0,1,3.873,3.063L16.348,8.042a7.112,7.112,0,0,0-2.017-1.783,4.918,4.918,0,0,0-2.489-.634,5.27,5.27,0,0,0-1.974.354A4.163,4.163,0,0,0,8.351,7.011a4.771,4.771,0,0,0-.986,1.634,6.126,6.126,0,0,0-.354,2.135,6.116,6.116,0,0,0,.354,2.135,4.764,4.764,0,0,0,.986,1.636,4.163,4.163,0,0,0,1.516,1.031,5.3,5.3,0,0,0,1.974.353,4.9,4.9,0,0,0,2.489-.634,7.086,7.086,0,0,0,2.017-1.782l4.389,3.918a10.22,10.22,0,0,1-3.873,3.049,12.767,12.767,0,0,1-5.375,1.075A13.1,13.1,0,0,1,6.907,20.782Zm130.273.309V.472h16.76V5.714h-9.927V8.13h8.719v5.008h-8.719v2.711h10.31v5.243Zm-16.261,0V5.862h-6.038V.472H133.91v5.39h-6.038V21.091Zm-45.51,0L66.69.472h7.483l4.907,12.033L84.129.472h6.833L82.243,21.091Zm-17.557,0-3.5-5.184H52.463v5.184H45.51V.472h9.927a12.148,12.148,0,0,1,4.993.942,7.38,7.38,0,0,1,3.254,2.695,7.373,7.373,0,0,1,1.149,4.138,7.231,7.231,0,0,1-1.149,4.109,7.089,7.089,0,0,1-2.736,2.392l4.326,6.342ZM55,10.663a3.042,3.042,0,0,0,2.135-.647,2.306,2.306,0,0,0,.692-1.768,2.3,2.3,0,0,0-.692-1.767A3.035,3.035,0,0,0,55,5.832H52.463v4.83ZM24.214,21.091V.472h16.76V5.714H31.047V8.13h8.719v5.008H31.047v2.711h10.31v5.243Z" transform="translate(541.734 102.626)"/>
    <path id="Path_18" data-name="Path 18" d="M12.23,7.242a13.235,13.235,0,0,1-4.654-.8,10.941,10.941,0,0,1-3.7-2.253A10.357,10.357,0,0,1,1.449.763,10.586,10.586,0,0,1,.58-3.553a10.446,10.446,0,0,1,.869-4.3,10.483,10.483,0,0,1,2.43-3.417,10.894,10.894,0,0,1,3.695-2.26,13.187,13.187,0,0,1,4.642-.8,13.157,13.157,0,0,1,4.654.8,10.92,10.92,0,0,1,3.682,2.26,10.483,10.483,0,0,1,2.43,3.417,10.446,10.446,0,0,1,.869,4.3A10.586,10.586,0,0,1,22.982.763a10.357,10.357,0,0,1-2.43,3.431A10.972,10.972,0,0,1,16.87,6.447,13.114,13.114,0,0,1,12.23,7.242Zm-.016-5.626a4.624,4.624,0,0,0,1.813-.353A4.354,4.354,0,0,0,15.5.246a4.633,4.633,0,0,0,.987-1.62,6.22,6.22,0,0,0,.353-2.165A6.22,6.22,0,0,0,16.487-5.7a4.633,4.633,0,0,0-.987-1.62A4.358,4.358,0,0,0,14.028-8.34a4.614,4.614,0,0,0-1.812-.353A4.624,4.624,0,0,0,10.4-8.34,4.354,4.354,0,0,0,8.931-7.324,4.633,4.633,0,0,0,7.944-5.7a6.22,6.22,0,0,0-.353,2.165,6.22,6.22,0,0,0,.353,2.165A4.633,4.633,0,0,0,8.931.246,4.358,4.358,0,0,0,10.4,1.263,4.614,4.614,0,0,0,12.214,1.616Z" transform="translate(632.116 116.946)" fill="url(#linear-gradient)"/>
    <path id="Union_9-2" data-name="Union 9" d="M20.456,56.14,55.251,42.9v-8.44L31.618,25.69v8.06l14.209,4.988L20.456,48.081v8.06m11.18-14.084V33.994L17.427,29.008,42.8,19.666V11.6L8,24.844v8.44l23.635,8.773M12.456,67.744V43.471L0,38.847V19.328L50.8,0V24.274L63.251,28.9v19.52Z" transform="matrix(0.999, 0.035, -0.035, 0.999, 476.4, 96.68)" fill="url(#linear-gradient-2)"/>
  </g>
</svg>
