<svg xmlns="http://www.w3.org/2000/svg" xmlns:xlink="http://www.w3.org/1999/xlink" width="286.62" height="60.566" viewBox="0 0 286.62 60.566">
  <defs>
    <linearGradient id="linear-gradient" x1="0.737" y1="0.059" x2="0.276" y2="0.958" gradientUnits="objectBoundingBox">
      <stop offset="0" stop-color="#ff9d00"/>
      <stop offset="1" stop-color="#f44646"/>
    </linearGradient>
    <linearGradient id="linear-gradient-2" x1="0.791" y1="0" x2="0.199" y2="0.98" xlink:href="#linear-gradient"/>
  </defs>
  <g id="Group_16" data-name="Group 16" transform="translate(-484 -268)">
    <path id="Union_8" data-name="Union 8" d="M209.143,23.549a16.244,16.244,0,0,1-4.5-1.72l2.536-5.689a16.311,16.311,0,0,0,3.721,1.538,14.645,14.645,0,0,0,3.987.579,8.4,8.4,0,0,0,1.785-.149,2.061,2.061,0,0,0,.952-.43.9.9,0,0,0,.3-.678,1.1,1.1,0,0,0-.7-.993,7.569,7.569,0,0,0-1.852-.612q-1.151-.247-2.519-.529a23.7,23.7,0,0,1-2.753-.743,10.781,10.781,0,0,1-2.536-1.224,5.761,5.761,0,0,1-1.852-2,6.219,6.219,0,0,1-.7-3.092,6.761,6.761,0,0,1,1.218-3.92,8.3,8.3,0,0,1,3.638-2.828A15.05,15.05,0,0,1,215.884,0a22.139,22.139,0,0,1,4.671.5,14.832,14.832,0,0,1,4.138,1.522l-2.369,5.656a18.024,18.024,0,0,0-3.353-1.291,12.275,12.275,0,0,0-3.154-.429,6.548,6.548,0,0,0-1.8.2,1.974,1.974,0,0,0-.952.529,1.1,1.1,0,0,0-.283.728,1.052,1.052,0,0,0,.7.942,7.621,7.621,0,0,0,1.852.579q1.152.232,2.536.5a20.673,20.673,0,0,1,2.753.728,10.847,10.847,0,0,1,2.519,1.224,5.777,5.777,0,0,1,1.852,1.984,6.044,6.044,0,0,1,.7,3.043,6.7,6.7,0,0,1-1.219,3.886,8.432,8.432,0,0,1-3.62,2.845,14.824,14.824,0,0,1-6.039,1.075A24.063,24.063,0,0,1,209.143,23.549Zm-56.633-.417a12.842,12.842,0,0,1-4.3-2.51,11.546,11.546,0,0,1-2.829-3.821,11.352,11.352,0,0,1-1.012-4.807,11.2,11.2,0,0,1,1.012-4.784A11.692,11.692,0,0,1,148.208,3.4a12.8,12.8,0,0,1,4.3-2.517,16.965,16.965,0,0,1,10.819,0A12.833,12.833,0,0,1,167.612,3.4a11.705,11.705,0,0,1,2.829,3.806,11.214,11.214,0,0,1,1.012,4.784A11.365,11.365,0,0,1,170.44,16.8a11.558,11.558,0,0,1-2.829,3.821,12.878,12.878,0,0,1-4.285,2.51,15.889,15.889,0,0,1-5.4.887A16.03,16.03,0,0,1,152.51,23.132ZM155.8,6.661a5.068,5.068,0,0,0-1.713,1.132,5.121,5.121,0,0,0-1.149,1.8,6.659,6.659,0,0,0-.411,2.411,6.661,6.661,0,0,0,.411,2.412,5.129,5.129,0,0,0,1.149,1.8,5.078,5.078,0,0,0,1.713,1.132,5.851,5.851,0,0,0,4.218,0,5.076,5.076,0,0,0,1.714-1.132,5.129,5.129,0,0,0,1.149-1.8,6.661,6.661,0,0,0,.411-2.412,6.659,6.659,0,0,0-.411-2.411,5.03,5.03,0,0,0-2.861-2.937,5.841,5.841,0,0,0-4.219,0Zm-73.692,14.5q-3.086-2.855-3.086-8.006V.525h8.091v12.4a5.527,5.527,0,0,0,.994,3.724,3.823,3.823,0,0,0,5.365,0,5.594,5.594,0,0,0,.978-3.724V.525H102.4V13.157q0,5.152-3.086,8.006t-8.606,2.855Q85.195,24.018,82.109,21.163Zm-49.18,1.968a12.842,12.842,0,0,1-4.3-2.51A11.546,11.546,0,0,1,25.8,16.8a11.352,11.352,0,0,1-1.012-4.807A11.2,11.2,0,0,1,25.8,7.209,11.692,11.692,0,0,1,28.627,3.4a12.8,12.8,0,0,1,4.3-2.517,16.965,16.965,0,0,1,10.819,0A12.833,12.833,0,0,1,48.031,3.4,11.7,11.7,0,0,1,50.86,7.209a11.214,11.214,0,0,1,1.012,4.784A11.366,11.366,0,0,1,50.86,16.8a11.558,11.558,0,0,1-2.829,3.821,12.878,12.878,0,0,1-4.285,2.51,15.889,15.889,0,0,1-5.4.887A16.03,16.03,0,0,1,32.929,23.132ZM36.22,6.661A5.028,5.028,0,0,0,33.358,9.6a6.659,6.659,0,0,0-.411,2.411,6.661,6.661,0,0,0,.411,2.412,5.03,5.03,0,0,0,2.861,2.937,5.851,5.851,0,0,0,4.218,0,5.076,5.076,0,0,0,1.714-1.132,5.129,5.129,0,0,0,1.149-1.8,6.661,6.661,0,0,0,.411-2.412A6.659,6.659,0,0,0,43.3,9.6a5.03,5.03,0,0,0-2.861-2.937,5.841,5.841,0,0,0-4.219,0ZM4.628,23.361A17.054,17.054,0,0,1,0,21.656l2.605-5.644a17.094,17.094,0,0,0,3.823,1.526,15.539,15.539,0,0,0,4.1.574,8.88,8.88,0,0,0,1.834-.148,2.142,2.142,0,0,0,.977-.427.875.875,0,0,0,.309-.672,1.1,1.1,0,0,0-.72-.985,7.931,7.931,0,0,0-1.9-.607q-1.182-.247-2.588-.526a25.068,25.068,0,0,1-2.829-.738A11.212,11.212,0,0,1,3,12.8a5.783,5.783,0,0,1-1.9-1.985,6,6,0,0,1-.72-3.068A6.55,6.55,0,0,1,1.628,3.856,8.492,8.492,0,0,1,5.366,1.05,15.946,15.946,0,0,1,11.553,0a23.472,23.472,0,0,1,4.8.492A15.567,15.567,0,0,1,20.6,2L18.17,7.612a18.877,18.877,0,0,0-3.445-1.28,13.013,13.013,0,0,0-3.24-.427,6.952,6.952,0,0,0-1.852.2,2.044,2.044,0,0,0-.977.525,1.065,1.065,0,0,0-.291.722,1.048,1.048,0,0,0,.72.935,8.014,8.014,0,0,0,1.9.574q1.182.231,2.605.492a22.019,22.019,0,0,1,2.829.722,11.351,11.351,0,0,1,2.588,1.214,5.534,5.534,0,0,1,2.623,4.988,6.5,6.5,0,0,1-1.252,3.855,8.61,8.61,0,0,1-3.719,2.822,15.7,15.7,0,0,1-6.206,1.066A25.559,25.559,0,0,1,4.628,23.361Zm188.491.131L184,13.049V23.493h-7.885V.525h6.651l9.12,10.444V.525h7.885V23.493Zm-61.5,0V.525H139.7V23.493Zm-18.925,0V6.53h-7.028v-6h22.147v6h-7.027V23.493Zm-56.156,0V.525h8.092V17.489H75.458v6Z" transform="translate(544.425 298)" stroke="rgba(0,0,0,0)" stroke-miterlimit="10" stroke-width="1"/>
    <g id="Group_8" data-name="Group 8" transform="translate(-62.32 21.882)">
      <g id="Group_7" data-name="Group 7" transform="translate(607.707 247.44)">
        <g id="Group_2" data-name="Group 2">
          <g id="Group_1" data-name="Group 1">
            <path id="Path_7" data-name="Path 7" d="M89.214,8.457V-8.507H82.488v-6h21.2v6H96.958V8.457Zm25.2-14.437H124.65V-.4H114.413Zm.525,8.6h11.484v5.84h-19.1V-14.511H126v5.84H114.938Zm27.988,6.365a14.57,14.57,0,0,1-5.1-.869,12,12,0,0,1-4.069-2.477,11.269,11.269,0,0,1-2.674-3.806,12.1,12.1,0,0,1-.952-4.856,12.1,12.1,0,0,1,.952-4.856,11.269,11.269,0,0,1,2.674-3.806,12,12,0,0,1,4.069-2.477,14.57,14.57,0,0,1,5.1-.869,14.377,14.377,0,0,1,5.988,1.181,11.111,11.111,0,0,1,4.315,3.412L148.34-6.079a7.927,7.927,0,0,0-2.248-1.985,5.473,5.473,0,0,0-2.773-.705,5.873,5.873,0,0,0-2.2.394,4.641,4.641,0,0,0-1.69,1.148,5.336,5.336,0,0,0-1.1,1.821,6.826,6.826,0,0,0-.394,2.379,6.826,6.826,0,0,0,.394,2.379,5.336,5.336,0,0,0,1.1,1.821,4.641,4.641,0,0,0,1.69,1.148,5.873,5.873,0,0,0,2.2.394,5.473,5.473,0,0,0,2.773-.705A7.927,7.927,0,0,0,148.34.024l4.889,4.364a11.38,11.38,0,0,1-4.315,3.4A14.207,14.207,0,0,1,142.926,8.982ZM172-14.511h7.743V8.457H172ZM164.844,8.457H157.1V-14.511h7.743Zm7.678-8.465h-8.2V-6.374h8.2Z" transform="translate(44.992 15.092)"/>
            <path id="Union_6" data-name="Union 6" d="M7.695,23.147a12,12,0,0,1-4.07-2.476A11.293,11.293,0,0,1,.952,16.865,12.1,12.1,0,0,1,0,12.009,12.109,12.109,0,0,1,.952,7.152,11.274,11.274,0,0,1,3.625,3.347,11.976,11.976,0,0,1,7.695.869,14.572,14.572,0,0,1,12.8,0a14.372,14.372,0,0,1,5.988,1.181A11.119,11.119,0,0,1,23.1,4.593L18.21,8.957a7.913,7.913,0,0,0-2.247-1.986,5.485,5.485,0,0,0-2.773-.706,5.883,5.883,0,0,0-2.2.394A4.637,4.637,0,0,0,9.3,7.809,5.352,5.352,0,0,0,8.2,9.63a6.849,6.849,0,0,0-.394,2.379A6.841,6.841,0,0,0,8.2,14.387a5.338,5.338,0,0,0,1.1,1.821,4.637,4.637,0,0,0,1.69,1.149,5.855,5.855,0,0,0,2.2.394,5.471,5.471,0,0,0,2.773-.706A7.929,7.929,0,0,0,18.21,15.06L23.1,19.424a11.386,11.386,0,0,1-4.316,3.4,14.2,14.2,0,0,1-5.988,1.2A14.54,14.54,0,0,1,7.695,23.147Zm75.009.4L72.993.581h8.333l5.466,13.4L92.417.581h7.612L90.317,23.548Zm-19.555,0-3.9-5.774H57.145v5.774H49.4V.581H60.458a13.521,13.521,0,0,1,5.562,1.05,8.212,8.212,0,0,1,3.627,3,8.222,8.222,0,0,1,1.28,4.61,8.067,8.067,0,0,1-1.28,4.577A7.906,7.906,0,0,1,66.6,16.484l4.82,7.064ZM59.966,11.933a3.382,3.382,0,0,0,2.379-.721,2.563,2.563,0,0,0,.771-1.969,2.563,2.563,0,0,0-.771-1.969,3.382,3.382,0,0,0-2.379-.721H57.145v5.38ZM25.679,23.548V.581h18.67v5.84H33.29V9.112H43v5.577H33.29v3.019H44.775v5.84Z" transform="translate(0 0)" stroke="rgba(0,0,0,0)" stroke-miterlimit="10" stroke-width="1"/>
            <path id="Path_3" data-name="Path 3" d="M13.788,9.357a14.972,14.972,0,0,1-5.265-.9A12.378,12.378,0,0,1,4.341,5.908,11.716,11.716,0,0,1,1.592,2.027,11.976,11.976,0,0,1,.609-2.855a11.817,11.817,0,0,1,.983-4.859A11.859,11.859,0,0,1,4.341-11.58a12.324,12.324,0,0,1,4.18-2.556,14.918,14.918,0,0,1,5.251-.9,14.884,14.884,0,0,1,5.265.9A12.353,12.353,0,0,1,23.2-11.58a11.859,11.859,0,0,1,2.749,3.866,11.817,11.817,0,0,1,.983,4.859,11.976,11.976,0,0,1-.983,4.882A11.717,11.717,0,0,1,23.2,5.908a12.412,12.412,0,0,1-4.165,2.549A14.835,14.835,0,0,1,13.788,9.357ZM13.77,2.992a5.231,5.231,0,0,0,2.051-.4,4.925,4.925,0,0,0,1.666-1.15A5.241,5.241,0,0,0,18.6-.39,7.036,7.036,0,0,0,19-2.84a7.036,7.036,0,0,0-.4-2.449,5.241,5.241,0,0,0-1.116-1.833,4.93,4.93,0,0,0-1.665-1.15,5.219,5.219,0,0,0-2.049-.4,5.231,5.231,0,0,0-2.051.4,4.926,4.926,0,0,0-1.666,1.15A5.241,5.241,0,0,0,8.94-5.289a7.036,7.036,0,0,0-.4,2.449A7.036,7.036,0,0,0,8.94-.39a5.241,5.241,0,0,0,1.116,1.833,4.93,4.93,0,0,0,1.665,1.15A5.219,5.219,0,0,0,13.77,2.992Z" transform="translate(98.983 15.092)" fill="url(#linear-gradient)"/>
          </g>
        </g>
      </g>
      <path id="Union_9" data-name="Union 9" d="M17.722,48.636l30.144-11.47V29.855l-20.474-7.6v6.982L39.7,33.56l-21.98,8.094v6.982m9.685-12.2V29.451L15.1,25.131l21.977-8.094V10.053L6.931,21.523v7.311l20.476,7.6M10.791,58.689V37.66L0,33.655V16.744L44.006,0V21.03l10.791,4V41.945Z" transform="matrix(0.999, 0.035, -0.035, 0.999, 548.368, 246.118)" fill="url(#linear-gradient-2)"/>
    </g>
  </g>
</svg>
